<svg xmlns="http://www.w3.org/2000/svg" width="39.754" height="39.754" viewBox="0 0 39.754 39.754"><defs><style>.a{fill:#377dff;}</style></defs><g transform="translate(0 0)"><path class="a" d="M28.337,2a1.491,1.491,0,0,1,1.477,1.288l.014.2V8.112a7.462,7.462,0,0,1,5.813,5.814h4.621a1.491,1.491,0,0,1,.2,2.968l-.2.014H35.791v3.478h4.472a1.491,1.491,0,0,1,1.477,1.288l.014.2a1.491,1.491,0,0,1-1.288,1.477l-.2.014H35.791v3.478h4.472a1.491,1.491,0,0,1,1.477,1.288l.014.2a1.491,1.491,0,0,1-1.288,1.477l-.2.014-4.622,0a7.463,7.463,0,0,1-5.813,5.812v4.622a1.491,1.491,0,0,1-2.968.2l-.014-.2V35.789h-3.48l0,4.474a1.491,1.491,0,0,1-1.288,1.477l-.2.014A1.491,1.491,0,0,1,20.4,40.465l-.014-.2,0-4.474H16.908v4.474a1.491,1.491,0,0,1-1.288,1.477l-.2.014a1.491,1.491,0,0,1-1.477-1.288l-.014-.2V35.642a7.463,7.463,0,0,1-5.815-5.814H3.491a1.491,1.491,0,0,1-.2-2.968l.2-.014,4.472,0V23.366l-4.472,0a1.491,1.491,0,0,1-1.477-1.288L2,21.877A1.491,1.491,0,0,1,3.288,20.4l.2-.014,4.472,0V16.906l-4.472,0a1.491,1.491,0,0,1-1.477-1.288L2,15.417A1.491,1.491,0,0,1,3.288,13.94l.2-.014,4.622,0a7.463,7.463,0,0,1,5.814-5.812V3.491a1.491,1.491,0,0,1,2.968-.2l.014.2v4.47h3.476l0-4.47a1.491,1.491,0,0,1,1.288-1.477l.2-.014a1.491,1.491,0,0,1,1.477,1.288l.014.2,0,4.47h3.48V3.491A1.491,1.491,0,0,1,27.94,2.053l.194-.04Zm0,8.945H15.417a4.472,4.472,0,0,0-4.472,4.472v12.92a4.472,4.472,0,0,0,4.472,4.472h12.92a4.472,4.472,0,0,0,4.472-4.472V15.417A4.472,4.472,0,0,0,28.337,10.945Zm-6.45,4.979a5.963,5.963,0,1,1-5.963,5.963A5.963,5.963,0,0,1,21.887,15.924Zm0,2.981a2.982,2.982,0,1,0,2.982,2.982A2.982,2.982,0,0,0,21.887,18.9Z" transform="translate(-2 -2)"/></g></svg>