<svg xmlns="http://www.w3.org/2000/svg" width="32.797" height="39.754" viewBox="0 0 32.797 39.754"><defs><style>.a{fill:#377dff;}</style></defs><g transform="translate(0 0)"><path class="a" d="M31.827,2A4.969,4.969,0,0,1,36.8,6.969V35.294a1.491,1.491,0,0,1-1.491,1.491H6.982a1.988,1.988,0,0,0,1.988,1.988H35.306a1.491,1.491,0,1,1,0,2.982H8.969A4.969,4.969,0,0,1,4,36.784V6.969A4.969,4.969,0,0,1,8.969,2Zm0,2.982H8.969A1.988,1.988,0,0,0,6.982,6.969V33.8H33.815V6.969A1.988,1.988,0,0,0,31.827,4.982ZM27.852,7.963A1.988,1.988,0,0,1,29.84,9.951v3.975a1.988,1.988,0,0,1-1.988,1.988h-15.9a1.988,1.988,0,0,1-1.988-1.988V9.951a1.988,1.988,0,0,1,1.988-1.988Zm-.994,2.982H12.945v1.988H26.858Z" transform="translate(-4 -2)"/></g></svg>