<svg xmlns="http://www.w3.org/2000/svg" width="52.991" height="47.704" viewBox="0 0 52.991 47.704"><defs><style>.a{fill:#377dff;}</style></defs><path class="a" d="M35.774,34.787a4.636,4.636,0,0,1,4.636,4.636l0,2.549c.309,5.8-4,8.733-11.74,8.733-7.706,0-12.1-2.887-12.1-8.633V39.423A4.636,4.636,0,0,1,21.2,34.787Zm0,3.973H21.2a.662.662,0,0,0-.662.662v2.649c0,3.116,2.349,4.659,8.124,4.659,5.743,0,7.935-1.493,7.77-4.654V39.423A.662.662,0,0,0,35.774,38.76ZM6.636,21.542H18.227a10.7,10.7,0,0,0-.252,3.971l-11.34,0a.662.662,0,0,0-.662.662v2.649c0,3.116,2.349,4.659,8.124,4.659a21.764,21.764,0,0,0,3.2-.2,7.265,7.265,0,0,0-3.107,4.176l-.091,0C6.392,37.46,2,34.573,2,28.827V26.178A4.636,4.636,0,0,1,6.636,21.542Zm43.707,0a4.636,4.636,0,0,1,4.636,4.636l0,2.549c.309,5.8-4,8.733-11.74,8.733l-.446,0A7.3,7.3,0,0,0,39.562,33.2a20.2,20.2,0,0,0,3.673.287c5.743,0,7.935-1.493,7.77-4.654V26.178a.662.662,0,0,0-.662-.662L39,25.514a10.728,10.728,0,0,0,.082-1.322,10.608,10.608,0,0,0-.334-2.649Zm-21.854-5.3a7.947,7.947,0,1,1-7.947,7.947A7.947,7.947,0,0,1,28.489,16.245Zm0,3.973a3.973,3.973,0,1,0,3.973,3.973A3.973,3.973,0,0,0,28.489,20.218ZM13.92,3a7.947,7.947,0,1,1-7.947,7.947A7.947,7.947,0,0,1,13.92,3ZM43.058,3a7.947,7.947,0,1,1-7.947,7.947A7.947,7.947,0,0,1,43.058,3ZM13.92,6.973a3.973,3.973,0,1,0,3.973,3.973A3.973,3.973,0,0,0,13.92,6.973Zm29.138,0a3.973,3.973,0,1,0,3.973,3.973A3.973,3.973,0,0,0,43.058,6.973Z" transform="translate(-2 -3)"/></svg>